<?xml version="1.0" encoding="utf-8"?>
<!-- Generator: Adobe Illustrator 27.7.0, SVG Export Plug-In . SVG Version: 6.00 Build 0)  -->
<svg version="1.1" id="Layer_1" xmlns="http://www.w3.org/2000/svg" xmlns:xlink="http://www.w3.org/1999/xlink" x="0px" y="0px"
	 viewBox="0 0 123 31" style="enable-background:new 0 0 123 31;" xml:space="preserve">
<style type="text/css">
	.st0{clip-path:url(#SVGID_00000041287339498482826190000002345703956338024323_);}
	.st1{fill:#FFFFFF;}
	.st2{fill:#00B67A;}
</style>
<g>
	<defs>
		<rect id="SVGID_1_" y="0.5" width="123" height="30"/>
	</defs>
	<clipPath id="SVGID_00000132051713671902736150000014622533182529387952_">
		<use xlink:href="#SVGID_1_"  style="overflow:visible;"/>
	</clipPath>
	<g style="clip-path:url(#SVGID_00000132051713671902736150000014622533182529387952_);">
		<path class="st1" d="M32.1,11.1h12.4v2.3h-4.9v13h-2.7v-13h-4.8L32.1,11.1z M44,15.3h2.3v2.1h0c0.1-0.3,0.2-0.6,0.4-0.9
			c0.2-0.3,0.4-0.5,0.8-0.8c0.3-0.2,0.6-0.4,1-0.6c0.3-0.1,0.7-0.2,1.1-0.2c0.3,0,0.5,0,0.6,0c0.1,0,0.2,0,0.3,0v2.3
			c-0.2,0-0.3-0.1-0.5-0.1c-0.2,0-0.3,0-0.5,0c-0.4,0-0.8,0.1-1.2,0.2c-0.4,0.2-0.7,0.4-1,0.7c-0.3,0.3-0.5,0.7-0.7,1.2
			c-0.2,0.5-0.2,1-0.2,1.6v5.3h-2.4L44,15.3z M61.6,26.4h-2.4v-1.5h0c-0.3,0.6-0.8,1-1.3,1.3c-0.6,0.3-1.2,0.5-1.8,0.5
			c-1.4,0-2.5-0.3-3.2-1.1c-0.7-0.7-1-1.8-1-3.3v-7h2.4v6.8c0,1,0.2,1.7,0.6,2.1c0.4,0.4,0.9,0.6,1.6,0.6c0.5,0,0.9-0.1,1.3-0.2
			c0.3-0.2,0.6-0.4,0.8-0.6c0.2-0.3,0.4-0.6,0.5-1c0.1-0.4,0.1-0.8,0.1-1.2v-6.4h2.4L61.6,26.4L61.6,26.4z M65.8,22.9
			c0.1,0.7,0.3,1.2,0.8,1.5c0.5,0.3,1,0.4,1.7,0.4c0.2,0,0.5,0,0.8-0.1c0.3,0,0.6-0.1,0.8-0.2c0.3-0.1,0.5-0.2,0.6-0.4
			c0.2-0.2,0.2-0.4,0.2-0.8s-0.1-0.6-0.3-0.8c-0.2-0.2-0.5-0.3-0.8-0.5c-0.3-0.1-0.7-0.2-1.1-0.3c-0.4-0.1-0.9-0.2-1.3-0.3
			c-0.4-0.1-0.9-0.2-1.3-0.4c-0.4-0.1-0.8-0.3-1.1-0.6c-0.3-0.2-0.6-0.5-0.8-0.9c-0.2-0.4-0.3-0.8-0.3-1.4c0-0.6,0.1-1.1,0.4-1.5
			c0.3-0.4,0.7-0.7,1.1-1c0.4-0.2,1-0.4,1.5-0.5c0.5-0.1,1.1-0.1,1.6-0.1c0.6,0,1.1,0.1,1.6,0.2c0.5,0.1,1,0.3,1.4,0.6
			c0.4,0.3,0.8,0.6,1,1.1c0.3,0.4,0.4,1,0.5,1.6h-2.5c-0.1-0.6-0.4-1-0.8-1.2C69,17,68.6,16.9,68,16.9c-0.2,0-0.4,0-0.6,0
			c-0.2,0-0.4,0.1-0.7,0.2c-0.2,0.1-0.4,0.2-0.5,0.3c-0.1,0.1-0.2,0.3-0.2,0.6c0,0.3,0.1,0.5,0.3,0.7c0.2,0.2,0.5,0.3,0.8,0.5
			c0.3,0.1,0.7,0.2,1.1,0.3c0.4,0.1,0.9,0.2,1.3,0.3c0.4,0.1,0.9,0.2,1.3,0.4c0.4,0.1,0.8,0.3,1.1,0.6c0.3,0.2,0.6,0.5,0.8,0.9
			c0.2,0.4,0.3,0.8,0.3,1.4c0,0.7-0.1,1.2-0.4,1.7c-0.3,0.4-0.7,0.8-1.2,1.1c-0.5,0.3-1,0.5-1.6,0.6c-0.6,0.1-1.2,0.2-1.7,0.2
			c-0.7,0-1.3-0.1-1.9-0.2c-0.6-0.2-1.1-0.4-1.5-0.7c-0.4-0.3-0.8-0.7-1-1.2c-0.2-0.5-0.4-1-0.4-1.7L65.8,22.9L65.8,22.9L65.8,22.9z
			 M73.8,15.3h1.9V12h2.4v3.3h2.2v1.8h-2.2V23c0,0.3,0,0.5,0,0.7c0,0.2,0.1,0.3,0.1,0.5c0.1,0.1,0.2,0.2,0.3,0.3
			c0.2,0.1,0.4,0.1,0.7,0.1c0.2,0,0.3,0,0.5,0c0.2,0,0.3,0,0.5-0.1v1.9c-0.3,0-0.5,0.1-0.8,0.1c-0.3,0-0.5,0-0.8,0
			c-0.7,0-1.2-0.1-1.5-0.2s-0.7-0.3-0.9-0.5c-0.2-0.2-0.4-0.5-0.4-0.9c-0.1-0.3-0.1-0.8-0.1-1.2v-6.5h-1.9V15.3L73.8,15.3z M82,15.3
			h2.3v1.5h0c0.3-0.7,0.8-1.1,1.4-1.4c0.6-0.3,1.3-0.4,2-0.4c0.9,0,1.6,0.1,2.3,0.5c0.7,0.3,1.2,0.7,1.6,1.3c0.4,0.5,0.8,1.2,1,1.9
			c0.2,0.7,0.3,1.5,0.3,2.3c0,0.8-0.1,1.5-0.3,2.2c-0.2,0.7-0.5,1.3-0.9,1.9c-0.4,0.5-0.9,1-1.5,1.3c-0.6,0.3-1.3,0.5-2.1,0.5
			c-0.3,0-0.7,0-1.1-0.1c-0.3-0.1-0.7-0.2-1-0.3c-0.3-0.1-0.6-0.3-0.9-0.5c-0.3-0.2-0.5-0.5-0.7-0.8h0v5.5h-2.4L82,15.3L82,15.3z
			 M90.6,20.9c0-0.5-0.1-1-0.2-1.4c-0.1-0.5-0.3-0.9-0.6-1.2c-0.3-0.4-0.6-0.7-1-0.9C88.4,17.1,88,17,87.5,17c-1,0-1.8,0.3-2.3,1.1
			c-0.5,0.7-0.8,1.7-0.8,2.9c0,0.6,0.1,1.1,0.2,1.5c0.1,0.5,0.3,0.9,0.6,1.2c0.3,0.3,0.6,0.6,1,0.8c0.4,0.2,0.8,0.3,1.3,0.3
			c0.6,0,1-0.1,1.4-0.3c0.4-0.2,0.7-0.5,1-0.9c0.2-0.4,0.4-0.8,0.5-1.2C90.5,21.8,90.6,21.4,90.6,20.9z M94.9,11.1h2.4v2.3h-2.4
			V11.1z M94.9,15.3h2.4v11.1h-2.4V15.3z M99.5,11.1h2.4v15.3h-2.4V11.1z M109.4,26.7c-0.9,0-1.7-0.1-2.4-0.4
			c-0.7-0.3-1.3-0.7-1.8-1.2c-0.5-0.5-0.8-1.1-1.1-1.9c-0.2-0.7-0.4-1.5-0.4-2.3s0.1-1.6,0.4-2.3c0.2-0.7,0.6-1.3,1.1-1.9
			c0.5-0.5,1.1-0.9,1.8-1.2c0.7-0.3,1.5-0.4,2.4-0.4s1.7,0.1,2.4,0.4c0.7,0.3,1.3,0.7,1.8,1.2c0.5,0.5,0.8,1.1,1.1,1.9
			c0.2,0.7,0.4,1.5,0.4,2.3c0,0.9-0.1,1.6-0.4,2.3c-0.3,0.7-0.6,1.3-1.1,1.9c-0.5,0.5-1.1,0.9-1.8,1.2
			C111.1,26.5,110.3,26.7,109.4,26.7z M109.4,24.8c0.5,0,1-0.1,1.4-0.3c0.4-0.2,0.7-0.5,1-0.9s0.4-0.8,0.6-1.2
			c0.1-0.5,0.2-0.9,0.2-1.4c0-0.5-0.1-0.9-0.2-1.4c-0.1-0.5-0.3-0.9-0.6-1.2s-0.6-0.7-1-0.9c-0.4-0.2-0.9-0.3-1.4-0.3
			c-0.5,0-1,0.1-1.4,0.3c-0.4,0.2-0.7,0.5-1,0.9c-0.3,0.4-0.4,0.8-0.6,1.2c-0.1,0.5-0.2,0.9-0.2,1.4c0,0.5,0.1,1,0.2,1.4
			c0.1,0.5,0.3,0.9,0.6,1.2c0.3,0.4,0.6,0.7,1,0.9C108.4,24.7,108.9,24.8,109.4,24.8z M115.7,15.3h1.9V12h2.4v3.3h2.2v1.8H120V23
			c0,0.3,0,0.5,0,0.7c0,0.2,0.1,0.3,0.1,0.5c0.1,0.1,0.2,0.2,0.3,0.3c0.2,0.1,0.4,0.1,0.7,0.1c0.2,0,0.3,0,0.5,0
			c0.2,0,0.3,0,0.5-0.1v1.9c-0.3,0-0.5,0.1-0.8,0.1c-0.3,0-0.5,0-0.8,0c-0.7,0-1.2-0.1-1.5-0.2c-0.4-0.1-0.7-0.3-0.9-0.5
			c-0.2-0.2-0.4-0.5-0.4-0.9c-0.1-0.3-0.1-0.8-0.1-1.2v-6.5h-1.9V15.3L115.7,15.3z"/>
		<path class="st2" d="M29.3,11.1H18.1L14.6,0.5l-3.5,10.6L0,11.1l9,6.6L5.6,28.3l9-6.6l9,6.6l-3.4-10.6L29.3,11.1z"/>
		<path d="M21,20.1l-0.8-2.4l-5.6,4.1L21,20.1z"/>
	</g>
</g>
</svg>
