<?xml version="1.0" encoding="UTF-8"?>
<svg version="1.1" xmlns="http://www.w3.org/2000/svg" width="295" height="91">
<path d="M0 0 C97.35 0 194.7 0 295 0 C295 30.03 295 60.06 295 91 C197.65 91 100.3 91 0 91 C0 60.97 0 30.94 0 0 Z " fill="#FBFBFB" transform="translate(0,0)"/>
<path d="M0 0 C7.24527585 4.23780285 11.9081295 8.43412093 14.69921875 16.5 C15.69847118 20.47155105 16.20312011 24.15625977 14.3125 27.9375 C2.1025 27.9375 -10.1075 27.9375 -22.6875 27.9375 C-19.91243415 34.41265364 -18.70161545 36.93044228 -12.6875 39.9375 C-7.61458988 40.50321758 -3.22570164 40.6512006 1.1875 37.875 C4.3125 35.9375 4.3125 35.9375 6.5625 36 C8.53554038 37.05698592 9.84798199 38.25330429 11.3125 39.9375 C9.46243885 44.5186038 6.79064243 45.90195684 2.44140625 47.953125 C-4.40485331 50.10700441 -12.32911193 50.35575166 -18.98046875 47.546875 C-25.0836722 43.91841927 -30.42581849 37.72254452 -32.6875 30.9375 C-33.47693293 22.16351688 -33.42609439 14.94492934 -27.6875 7.9375 C-19.79638434 -0.39405002 -11.19219962 -3.22487108 0 0 Z " fill="#0E0E0E" transform="translate(230.6875,34.0625)"/>
<path d="M0 0 C3.3 0 6.6 0 10 0 C10 9.57 10 19.14 10 29 C11.98 27.68 13.96 26.36 16 25 C18.51171875 24.28125 18.51171875 24.28125 21 24 C21.93457031 23.8865625 22.86914062 23.773125 23.83203125 23.65625 C29.42860825 23.36285147 33.15806259 23.42201003 37.5625 27.125 C41.56794282 31.00123498 44.1251565 35.34986696 44.34057617 40.98583984 C44.34010688 42.4776234 44.32349629 43.96946626 44.29296875 45.4609375 C44.28872391 46.25150543 44.28447906 47.04207336 44.28010559 47.8565979 C44.26341301 50.3630894 44.22577983 52.86875461 44.1875 55.375 C44.17244092 57.08201958 44.15875466 58.78905185 44.14648438 60.49609375 C44.11354056 64.66437725 44.06182493 68.83204889 44 73 C42.52093108 73.02689216 41.04172517 73.04634621 39.5625 73.0625 C38.73878906 73.07410156 37.91507813 73.08570312 37.06640625 73.09765625 C35 73 35 73 34 72 C33.91413395 69.53939493 33.887349 67.10137815 33.89453125 64.640625 C33.8810698 63.11717338 33.86604566 61.59373492 33.84960938 60.0703125 C33.82680745 57.66262518 33.81246675 55.25641346 33.82495117 52.84863281 C33.83378767 50.52821596 33.80481986 48.2107377 33.76953125 45.890625 C33.78176224 45.17585999 33.79399323 44.46109497 33.80659485 43.72467041 C33.73826276 40.89308953 33.53745173 38.65487391 31.70445251 36.42140198 C27.51256913 32.79610564 24.66834745 32.30178017 19.34375 32.56640625 C16.03650851 33.17824593 14.24205976 34.54096672 12 37 C10.4725361 40.0549278 10.76008168 43.2763314 10.68359375 46.6328125 C10.66281265 47.38464813 10.64203156 48.13648376 10.62062073 48.91110229 C10.55517295 51.31564085 10.49626262 53.72028967 10.4375 56.125 C10.39431023 57.75391771 10.35069579 59.38282422 10.30664062 61.01171875 C10.19949649 65.00769915 10.09821567 69.00379059 10 73 C8.52093108 73.02689216 7.04172517 73.04634621 5.5625 73.0625 C4.32693359 73.07990234 4.32693359 73.07990234 3.06640625 73.09765625 C1 73 1 73 0 72 C-0.09436529 69.76070114 -0.11742327 67.5183825 -0.11352539 65.27709961 C-0.11367142 64.5746965 -0.11381744 63.8722934 -0.1139679 63.14860535 C-0.11326872 60.81648722 -0.10547617 58.484448 -0.09765625 56.15234375 C-0.09579208 54.53951562 -0.09436818 52.92668693 -0.09336853 51.31385803 C-0.08954323 47.06084643 -0.07971285 42.80786876 -0.06866455 38.55487061 C-0.05845069 34.2182257 -0.05387096 29.88157533 -0.04882812 25.54492188 C-0.03809059 17.02993231 -0.02101403 8.51497037 0 0 Z " fill="#0A0A0A" transform="translate(103,10)"/>
<path d="M0 0 C5.76941882 5.35731748 8.04954495 12.17894507 8.3984375 19.97265625 C8.40627406 21.66927072 8.3983638 23.3660283 8.375 25.0625 C8.38660156 25.90876953 8.39820313 26.75503906 8.41015625 27.62695312 C8.37784913 34.61067587 7.25640363 40.32794307 2.625 45.8125 C-2.4295763 50.02464692 -5.78612447 51.70051287 -12.43359375 51.47265625 C-17.72575618 50.4979962 -21.23694137 47.3756468 -24.3828125 43.13671875 C-27.17999145 38.2563261 -28.13162706 33.52756297 -27 28 C-23.26726089 17.93250291 -12.96850853 -1.60801152 0 0 Z " fill="#060606" transform="translate(76,35)"/>
<path d="M0 0 C0.93312012 0.00346436 1.86624023 0.00692871 2.82763672 0.01049805 C18.04658528 0.25057384 18.04658528 0.25057384 23.546875 4.72265625 C24.8125 6.3125 24.8125 6.3125 25.4375 9.4375 C24.39399519 15.90722984 20.15642112 20.09527732 15.5 24.5 C11.37174441 27.28417238 7.12121659 29.81945005 2.8125 32.3125 C1.3275 33.240625 1.3275 33.240625 -0.1875 34.1875 C-4.56547541 35.82924078 -8.57113975 35.98916518 -13.1875 35.3125 C-18.62314521 32.5946774 -23.13162723 28.13747285 -25.1875 22.3125 C-25.76096089 16.23381455 -24.66000706 11.49247959 -20.86328125 6.609375 C-14.93286162 0.19642779 -8.33595205 -0.04959233 0 0 Z " fill="#040404" transform="translate(40.1875,6.6875)"/>
<path d="M0 0 C3.3 0 6.6 0 10 0 C10.01458252 0.97348389 10.02916504 1.94696777 10.04418945 2.94995117 C10.10233296 6.57515476 10.17956377 10.1997476 10.26245117 13.82446289 C10.29562532 15.39076801 10.32368058 16.95719051 10.34643555 18.52368164 C10.38012116 20.78061763 10.43244049 23.03648526 10.48828125 25.29296875 C10.49467117 25.98899704 10.5010611 26.68502533 10.50764465 27.40214539 C10.63794486 31.74878925 11.37777896 34.51706537 14 38 C17.21855225 40.33067577 20.10490526 40.46741137 24 40 C27.6578218 37.96006092 29.66946174 36.49580738 32 33 C32.23993655 30.46413152 32.37253219 28.02783969 32.4140625 25.48828125 C32.43342865 24.76005661 32.4527948 24.03183197 32.4727478 23.28153992 C32.53246376 20.95864525 32.57889617 18.63570081 32.625 16.3125 C32.66318721 14.73630668 32.70223938 13.16013405 32.7421875 11.58398438 C32.83815848 7.72282465 32.92221849 3.86156724 33 0 C35.97 0 38.94 0 42 0 C42.14947492 4.81960794 42.25773603 9.63783739 42.32958984 14.45922852 C42.35957242 16.0955356 42.40037433 17.73168457 42.45263672 19.36743164 C42.96286369 35.7597236 42.96286369 35.7597236 37.64111328 42.3671875 C32.40426903 47.5775437 28.51094817 49.31204383 21 49.625 C14.66086866 49.3405518 10.46080851 48.60659438 6 44 C-0.53318904 34.63077323 -0.76484335 26.16071013 -0.375 15.25 C-0.34482017 13.76307569 -0.31745869 12.27609141 -0.29296875 10.7890625 C-0.22770347 7.19143535 -0.12464327 3.59611827 0 0 Z " fill="#101010" transform="translate(152,34)"/>
<path d="M0 0 C0.70125 0.00257812 1.4025 0.00515625 2.125 0.0078125 C8.48924467 0.24308957 12.60442829 2.3474664 17.1875 6.625 C15.66177344 9.95135882 14.25405496 11.58063002 11.1875 13.625 C10.2903125 12.9134375 10.2903125 12.9134375 9.375 12.1875 C6.31846606 10.00426147 3.85336512 9.48611415 0.1875 9.5 C-0.493125 9.49742188 -1.17375 9.49484375 -1.875 9.4921875 C-4.03124781 9.55868874 -4.03124781 9.55868874 -6.8125 10.625 C-6.8125 12.605 -6.8125 14.585 -6.8125 16.625 C-2.70492995 18.76861876 1.38244518 20.46336324 5.75 22 C14.76590821 25.49932511 14.76590821 25.49932511 17.1875 29.625 C18.06866464 34.95278251 17.84446806 39.20999187 15.5625 44.125 C11.92563689 47.95327696 8.63037484 49.44723308 3.3828125 50.09375 C2.02641098 50.12707439 0.66925879 50.13688167 -0.6875 50.125 C-1.39277832 50.12290527 -2.09805664 50.12081055 -2.82470703 50.11865234 C-9.9773842 49.90210492 -13.92051933 47.51698067 -18.8125 42.625 C-18.56808954 40.09942523 -17.98889341 38.8397398 -16.375 36.875 C-14.8125 35.625 -14.8125 35.625 -12.8125 35.625 C-11.45817325 36.93700404 -10.12516518 38.27131404 -8.8125 39.625 C-6.08172124 40.99038938 -3.85689633 40.75731826 -0.8125 40.75 C0.26 40.75257812 1.3325 40.75515625 2.4375 40.7578125 C5.14932052 40.8122341 5.14932052 40.8122341 7.1875 39.625 C7.52147787 36.75086875 7.52147787 36.75086875 7.1875 33.625 C4.48477495 31.08812398 1.99486117 30.12234653 -1.5625 29.25 C-6.95553946 27.72622702 -12.87474259 25.66734226 -16.01171875 20.7421875 C-17.74531161 16.15873711 -17.48982334 11.31830835 -15.6875 6.8125 C-11.24011479 1.62388392 -6.70998289 -0.10224736 0 0 Z " fill="#0B0B0B" transform="translate(265.8125,33.375)"/>
<path d="M0 0 C1.87589697 3.33492795 1.73994524 6.34546829 1.125 10 C-1.63626341 19.03239941 -6.05625105 26.92259704 -13.3125 33.0625 C-16.89162496 34.37193596 -20.15108107 34.66446397 -23.875 34 C-27.83114178 31.90996284 -30.50582195 29.77988521 -32.875 26 C-33.85980244 21.4042553 -33.88131322 16.94288196 -31.69140625 12.71484375 C-25.7211743 5.2842673 -9.86665215 -5.26221448 0 0 Z " fill="#060606" transform="translate(39.875,50)"/>
<path d="M0 0 C4.27277395 0.05751811 6.55532889 1.81856906 9.71484375 4.5390625 C11.0625 6.4375 11.0625 6.4375 12.0625 12.4375 C2.8225 12.4375 -6.4175 12.4375 -15.9375 12.4375 C-14.90927467 6.26814802 -14.62223551 5.08118317 -9.9375 1.4375 C-6.624983 0.48055065 -3.43165459 0.38129495 0 0 Z " fill="#F6F6F6" transform="translate(223.9375,41.5625)"/>
<path d="M0 0 C3.3 0 6.6 0 10 0 C10.33 9.9 10.66 19.8 11 30 C10.34 30 9.68 30 9 30 C9 20.43 9 10.86 9 1 C6.69 1 4.38 1 2 1 C2 24.1 2 47.2 2 71 C4.31 71 6.62 71 9 71 C9 61.1 9 51.2 9 41 C9.33 41 9.66 41 10 41 C10 51.56 10 62.12 10 73 C7.03 73 4.06 73 1 73 C0 72 0 72 -0.12025452 69.14634705 C-0.11803391 67.86949539 -0.11581329 66.59264374 -0.11352539 65.27709961 C-0.11367142 64.5746965 -0.11381744 63.8722934 -0.1139679 63.14860535 C-0.11326872 60.81648722 -0.10547617 58.484448 -0.09765625 56.15234375 C-0.09579208 54.53951562 -0.09436818 52.92668693 -0.09336853 51.31385803 C-0.08954323 47.06084643 -0.07971285 42.80786876 -0.06866455 38.55487061 C-0.05845069 34.2182257 -0.05387096 29.88157533 -0.04882812 25.54492188 C-0.03809059 17.02993231 -0.02101403 8.51497037 0 0 Z " fill="#4E4E4E" transform="translate(103,10)"/>
<path d="M0 0 C1.4370809 -0.05422947 2.87475462 -0.09289723 4.3125 -0.125 C5.11300781 -0.14820312 5.91351563 -0.17140625 6.73828125 -0.1953125 C9 0 9 0 12 2 C12.99 1.67 13.98 1.34 15 1 C15 2.98 15 4.96 15 7 C14.34 7 13.68 7 13 7 C13 6.34 13 5.68 13 5 C12.01 5 11.02 5 10 5 C10 5.99 10 6.98 10 8 C9.01 8 8.02 8 7 8 C7 6.02 7 4.04 7 2 C6.34 2 5.68 2 5 2 C5 3.65 5 5.3 5 7 C4.34 7 3.68 7 3 7 C3 5.35 3 3.7 3 2 C2.01 2 1.02 2 0 2 C0 1.34 0 0.68 0 0 Z " fill="#555555" transform="translate(268,18)"/>
<path d="M0 0 C0.598125 0.185625 1.19625 0.37125 1.8125 0.5625 C4.16408762 1.22093687 4.16408762 1.22093687 7 0 C7 1.98 7 3.96 7 6 C6.34 6 5.68 6 5 6 C5 5.34 5 4.68 5 4 C4.01 4 3.02 4 2 4 C2 4.66 2 5.32 2 6 C1.34 6 0.68 6 0 6 C0 4.02 0 2.04 0 0 Z " fill="#242424" transform="translate(276,19)"/>
<path d="M0 0 C0.66 0.33 1.32 0.66 2 1 C-0.31 3.31 -2.62 5.62 -5 8 C-5.33 7.34 -5.66 6.68 -6 6 C-4 4 -2 2 0 0 Z " fill="#2A2A2A" transform="translate(256,35)"/>
</svg>
