<?xml version="1.0" encoding="UTF-8"?>
<svg version="1.1" xmlns="http://www.w3.org/2000/svg" width="296" height="97">
<path d="M0 0 C97.68 0 195.36 0 296 0 C296 32.01 296 64.02 296 97 C198.32 97 100.64 97 0 97 C0 64.99 0 32.98 0 0 Z " fill="#F9F9F9" transform="translate(0,0)"/>
<path d="M0 0 C4.99876715 4.05560353 7.91230499 8.13155441 8.86328125 14.57421875 C8.99587565 17.80014286 8.97959763 21.02183358 8.9609375 24.25 C8.95952255 25.17515915 8.9581076 26.1003183 8.95664978 27.05351257 C8.9510684 29.99794802 8.9385193 32.94230642 8.92578125 35.88671875 C8.92076384 37.88736869 8.91620136 39.88801983 8.91210938 41.88867188 C8.90110506 46.78388369 8.88385323 51.67903817 8.86328125 56.57421875 C4.24328125 56.57421875 -0.37671875 56.57421875 -5.13671875 56.57421875 C-5.79671875 53.93421875 -6.45671875 51.29421875 -7.13671875 48.57421875 C-7.81734375 49.31671875 -8.49796875 50.05921875 -9.19921875 50.82421875 C-15.47859118 56.87932788 -20.51781542 58.22367076 -29.14501953 58.1081543 C-35.14538843 57.82105865 -39.79041613 56.85350789 -44.13671875 52.57421875 C-48.23897987 46.90687697 -50.17752904 41.51295405 -49.13671875 34.57421875 C-45.77831501 28.23056725 -41.46738789 23.62337895 -34.63769531 21.17407227 C-29.54566248 19.95275982 -24.34013481 20.27049124 -19.13671875 20.38671875 C-17.98042969 20.40025391 -16.82414062 20.41378906 -15.6328125 20.42773438 C-12.80028871 20.46284831 -9.96875568 20.51202875 -7.13671875 20.57421875 C-7.66119266 15.16634168 -7.66119266 15.16634168 -10.51171875 10.63671875 C-14.88459642 7.42853005 -19.97682799 7.85844122 -25.13671875 8.57421875 C-28.21171344 9.54759069 -28.21171344 9.54759069 -30.13671875 11.57421875 C-31.12671875 14.04921875 -31.12671875 14.04921875 -32.13671875 16.57421875 C-37.08671875 16.57421875 -42.03671875 16.57421875 -47.13671875 16.57421875 C-47.02354309 10.23638184 -45.62582256 6.98849804 -41.23828125 2.40234375 C-29.65360796 -7.67503004 -12.8200574 -8.55451728 0 0 Z " fill="#0A0A0A" transform="translate(143.13671875,34.42578125)"/>
<path d="M0 0 C4.40820598 4.65310631 8.25 9.86461262 8.25 16.375 C5.47754986 16.50987595 2.71162912 16.60900807 -0.0625 16.6875 C-0.84818359 16.72939453 -1.63386719 16.77128906 -2.44335938 16.81445312 C-4.64996529 16.86140219 -6.59360544 16.8519336 -8.75 16.375 C-10.66796875 13.96875 -10.66796875 13.96875 -11.75 11.375 C-15.69541102 7.79947127 -19.9855322 7.81564777 -25.0859375 7.953125 C-29.32923292 8.6250838 -30.91891652 10.1809571 -33.75 13.375 C-36.05871503 16.92564449 -36.04902043 20.07133476 -36.0625 24.25 C-36.07925781 25.44367187 -36.09601563 26.63734375 -36.11328125 27.8671875 C-35.56506002 33.16076454 -33.67743126 36.35924195 -30.125 40.25 C-25.7768274 42.9877383 -22.75085326 43.18158924 -17.75 42.375 C-14.34742945 41.42461347 -14.34742945 41.42461347 -11.75 39.375 C-10.76 37.395 -9.77 35.415 -8.75 33.375 C-3.14 33.375 2.47 33.375 8.25 33.375 C6.96003836 41.11476985 3.93248454 44.69251546 -1.5 50.125 C-10.44363112 56.31674462 -18.94853313 57.52636515 -29.75 56.375 C-37.09733761 54.56494161 -43.92442343 49.7097866 -48.06640625 43.35546875 C-49.08925581 41.38148234 -49.96472362 39.45481616 -50.75 37.375 C-51.10578125 36.45460937 -51.4615625 35.53421875 -51.828125 34.5859375 C-54.14225326 26.52571111 -54.09355532 16.86077225 -50.078125 9.3671875 C-38.40426237 -8.14360644 -17.62707052 -10.41599621 0 0 Z " fill="#080808" transform="translate(281.75,35.625)"/>
<path d="M0 0 C4.62 0 9.24 0 14 0 C14 5.28 14 10.56 14 16 C19.28 16 24.56 16 30 16 C30 19.96 30 23.92 30 28 C24.72 28 19.44 28 14 28 C14.05110523 32.20085009 14.11408736 36.39802469 14.20751953 40.59765625 C14.23569611 42.02526937 14.25692727 43.45303753 14.27099609 44.88085938 C14.29247392 46.93700332 14.33913974 48.99129002 14.390625 51.046875 C14.41157227 52.28276367 14.43251953 53.51865234 14.45410156 54.79199219 C15.09318576 58.54761219 15.97925943 59.74747683 19 62 C22.03222778 62.69397449 22.03222778 62.69397449 25.25 62.75 C28.09625 62.87375 28.09625 62.87375 31 63 C31 67.29 31 71.58 31 76 C11.63925756 76.80021438 11.63925756 76.80021438 5 72 C0.93281818 67.93281818 -0.87368759 64.0521013 -1.22705078 58.3112793 C-1.22673717 56.89888619 -1.21561892 55.4864659 -1.1953125 54.07421875 C-1.1924826 53.32662796 -1.18965271 52.57903717 -1.18673706 51.80879211 C-1.17559469 49.4348612 -1.15050162 47.06131575 -1.125 44.6875 C-1.11496249 43.0722711 -1.10583799 41.45703624 -1.09765625 39.84179688 C-1.07567489 35.89438406 -1.04118657 31.94725726 -1 28 C-4.3 28 -7.6 28 -11 28 C-11 24.04 -11 20.08 -11 16 C-7.7 16 -4.4 16 -1 16 C-1.020625 14.659375 -1.04125 13.31875 -1.0625 11.9375 C-1.06896884 7.84919311 -0.68530907 4.02619081 0 0 Z " fill="#040404" transform="translate(52,15)"/>
<path d="M0 0 C4.95 0 9.9 0 15 0 C15 28.71 15 57.42 15 87 C10.05 87 5.1 87 0 87 C0 58.29 0 29.58 0 0 Z " fill="#010101" transform="translate(167,4)"/>
<path d="M0 0 C4.95 0 9.9 0 15 0 C15.29123429 6.79546682 14.181995 12.8715832 12.75 19.5 C10.67032274 29.45656647 8.8569932 39.4261516 7.25683594 49.47070312 C7.10504883 50.41623047 6.95326172 51.36175781 6.796875 52.3359375 C6.66635742 53.16657715 6.53583984 53.9972168 6.40136719 54.85302734 C6 57 6 57 5 60 C0.05 60 -4.9 60 -10 60 C-8.8865406 46.05682936 -6.47312932 32.58592526 -3.60058594 18.90527344 C-2.3017232 12.62215693 -1.16384334 6.30925602 0 0 Z " fill="#060606" transform="translate(16,31)"/>
<path d="M0 0 C4.95 0 9.9 0 15 0 C15 19.8 15 39.6 15 60 C10.05 60 5.1 60 0 60 C0 40.2 0 20.4 0 0 Z " fill="#020202" transform="translate(199,31)"/>
<path d="M0 0 C0.88365234 0.01804687 1.76730469 0.03609375 2.67773438 0.0546875 C4.84812543 0.10161487 7.01795519 0.17335269 9.1875 0.25 C8.50260815 6.52569377 7.61884644 8.91936598 3.1875 13.25 C-1.04588848 15.83707074 -5.98114662 15.9620838 -10.8125 15.25 C-13.375 13.6875 -13.375 13.6875 -14.8125 11.25 C-15.375 7.75 -15.375 7.75 -14.8125 4.25 C-10.49993793 -0.69366871 -6.08082402 -0.23579631 0 0 Z " fill="#F4F4F4" transform="translate(125.8125,64.75)"/>
<path d="M0 0 C4.56944444 2.13888889 4.56944444 2.13888889 6 5 C6.36421406 8.86066899 6.27786725 11.37810663 4.6875 14.9375 C0.99282404 17.77294899 -1.86372457 17.64988454 -6.42578125 17.40625 C-9 17 -9 17 -11.6875 15.5625 C-13.66390515 11.70380422 -13.87829234 8.23601173 -13 4 C-9.49218258 -0.49439106 -5.34927208 -0.91856187 0 0 Z " fill="#080808" transform="translate(31,4)"/>
<path d="M0 0 C3.0625 1.5 3.0625 1.5 5 4 C5.78076719 8.91883328 5.76275589 10.81895862 3.0625 15 C-1.03835161 17.67810718 -4.22745013 17.82962082 -9 17 C-12.28931514 15.27310955 -12.8140267 14.5579199 -14 11 C-14.67148014 4.84476534 -14.67148014 4.84476534 -12.0625 1.5625 C-7.91646894 -0.55282197 -4.56561177 -0.7925836 0 0 Z " fill="#0A0A0A" transform="translate(211,4)"/>
</svg>
