<?xml version="1.0" encoding="UTF-8"?>
<svg version="1.1" xmlns="http://www.w3.org/2000/svg" width="293" height="98">
<path d="M0 0 C96.69 0 193.38 0 293 0 C293 32.34 293 64.68 293 98 C196.31 98 99.62 98 0 98 C0 65.66 0 33.32 0 0 Z " fill="#FBFBFB" transform="translate(0,0)"/>
<path d="M0 0 C3.63 0 7.26 0 11 0 C11 3.96 11 7.92 11 12 C23.54 12 36.08 12 49 12 C49 15.63 49 19.26 49 23 C36.79 23 24.58 23 12 23 C12 25.97 12 28.94 12 32 C21.57 32 31.14 32 41 32 C41.11496471 37.32158846 41.21444002 42.63885113 41.2746582 47.96069336 C41.2997639 49.76976132 41.33385595 51.57872822 41.37719727 53.38745117 C41.43802579 55.99162751 41.46624809 58.59446031 41.48828125 61.19921875 C41.51408768 62.00461594 41.5398941 62.81001312 41.56648254 63.63981628 C41.56860812 67.91967198 41.39753694 69.50140755 38.63354492 72.96801758 C32.46668789 77.726222 26.4922041 77.18273669 19 77 C18.01 73.37 17.02 69.74 16 66 C20.29 66 24.58 66 29 66 C29 58.41 29 50.82 29 43 C23.06 43 17.12 43 11 43 C11 57.85 11 72.7 11 88 C7.04 88 3.08 88 -1 88 C-1 73.48 -1 58.96 -1 44 C-6.28 44 -11.56 44 -17 44 C-17 54.89 -17 65.78 -17 77 C-20.63 77 -24.26 77 -28 77 C-28 62.15 -28 47.3 -28 32 C-19.09 32 -10.18 32 -1 32 C-1 29.03 -1 26.06 -1 23 C-12.88 23 -24.76 23 -37 23 C-37 19.37 -37 15.74 -37 12 C-24.79 12 -12.58 12 0 12 C0 8.04 0 4.08 0 0 Z " fill="#0B0B0B" transform="translate(42,6)"/>
<path d="M0 0 C5.54998583 3.15867361 9.15471793 6.99693586 12 12.6875 C13.5777025 20.89155301 13.26786876 27.40653038 9.109375 34.77734375 C5.61608708 39.86099697 0.69157484 43.5107113 -5.375 44.9375 C-13.890093 45.93992363 -20.53494653 45.33227021 -27.375 39.9375 C-32.92701223 34.74757552 -35.08997685 28.64369613 -35.54296875 21.1640625 C-35.27788408 14.15404562 -33.17747939 9.06976338 -28.375 3.9375 C-20.01194937 -2.65826446 -9.91706265 -4.58983932 0 0 Z " fill="#0C0C0C" transform="translate(191.375,31.0625)"/>
<path d="M0 0 C4.33125 -0.061875 8.6625 -0.12375 13.125 -0.1875 C14.47996582 -0.21481201 15.83493164 -0.24212402 17.23095703 -0.27026367 C18.85300049 -0.28150269 18.85300049 -0.28150269 20.5078125 -0.29296875 C21.60754395 -0.3086792 22.70727539 -0.32438965 23.84033203 -0.34057617 C28.59859468 0.17231027 31.86382811 2.00949117 35.4375 5.125 C37.39669857 8.72992537 37.26458779 10.9258745 36.62109375 14.90625 C35.76045051 17.8075379 34.46393804 19.28270985 32 21 C31.34 21 30.68 21 30 21 C30 21.66 30 22.32 30 23 C30.5775 23.04125 31.155 23.0825 31.75 23.125 C35.26350514 24.49136311 36.27577019 26.73627929 38 30 C38.66067786 33.96406718 38.20144076 35.61950078 36.3125 39.1875 C33.17507331 43.00328922 30.75300539 44.81514532 25.77026367 45.34057617 C24.58150635 45.32486572 23.39274902 45.30915527 22.16796875 45.29296875 C21.00289795 45.28547607 19.83782715 45.2779834 18.63745117 45.27026367 C17.16896729 45.24295166 15.7004834 45.21563965 14.1875 45.1875 C9.505625 45.125625 4.82375 45.06375 0 45 C0 30.15 0 15.3 0 0 Z " fill="#060606" transform="translate(211,30)"/>
<path d="M0 0 C10.56 0 21.12 0 32 0 C32 2.64 32 5.28 32 8 C24.74 8 17.48 8 10 8 C10 11.3 10 14.6 10 18 C17.26 18 24.52 18 32 18 C32 20.97 32 23.94 32 27 C24.74 27 17.48 27 10 27 C10 29.97 10 32.94 10 36 C17.26 36 24.52 36 32 36 C32 38.97 32 41.94 32 45 C21.44 45 10.88 45 0 45 C0 30.15 0 15.3 0 0 Z " fill="#0C0C0C" transform="translate(256,30)"/>
<path d="M0 0 C3.3 0 6.6 0 10 0 C10.33 5.94 10.66 11.88 11 18 C12.36125 16.329375 13.7225 14.65875 15.125 12.9375 C15.95644531 11.93976562 16.78789062 10.94203125 17.64453125 9.9140625 C19.94325855 7.16554906 19.94325855 7.16554906 21.51171875 4.7109375 C22.90934076 2.67116484 23.91565764 1.344737 26 0 C30.06747045 -0.56536269 33.92354686 -0.41556076 38 0 C37.195625 0.928125 36.39125 1.85625 35.5625 2.8125 C34.37453252 4.20793549 33.18710462 5.6038304 32 7 C31.21882813 7.90363281 30.43765625 8.80726562 29.6328125 9.73828125 C28.82585937 10.69089844 28.01890625 11.64351562 27.1875 12.625 C26.03314453 13.97464844 26.03314453 13.97464844 24.85546875 15.3515625 C22.89337244 18.15219681 21.94174105 19.57861094 22 23 C23.83473001 25.93447762 23.83473001 25.93447762 26.5 28.75 C27.42565303 29.80235404 28.35012297 30.85574985 29.2734375 31.91015625 C29.96518066 32.68770264 29.96518066 32.68770264 30.67089844 33.48095703 C32.57158137 35.65326585 34.35347431 37.90930338 36.125 40.1875 C36.68445313 40.90292969 37.24390625 41.61835937 37.8203125 42.35546875 C39 44 39 44 39 45 C34.62133962 46.20709016 31.35405502 46.39041094 27 45 C21.71813954 40.22157342 17.82900116 33.95788107 14 28 C11.43889688 30.25102777 11.03215977 30.78912032 10.48828125 34.35546875 C10.43027344 35.62003906 10.37226563 36.88460937 10.3125 38.1875 C10.24675781 39.45980469 10.18101562 40.73210937 10.11328125 42.04296875 C10.07589844 43.01878906 10.03851563 43.99460938 10 45 C6.7 45 3.4 45 0 45 C0 30.15 0 15.3 0 0 Z " fill="#0B0B0B" transform="translate(118,30)"/>
<path d="M0 0 C4.84989379 0.08910566 7.81702921 0.86243171 11.5078125 4.0234375 C14.83125393 7.62549078 15.26586208 11.4916549 15.12890625 16.3125 C14.40677861 21.16234491 12.24463889 25.04875926 8.75 28.4375 C4.1071367 30.01804921 -0.34838835 30.2306777 -5.1875 29.4375 C-8.41094672 27.0034688 -9.9621971 24.77545435 -12.1875 21.4375 C-13.52919117 9.94132515 -13.52919117 9.94132515 -11.13671875 5.4765625 C-9.8125 4.1875 -9.8125 4.1875 -7.1875 2.4375 C-4.64190061 -0.10809939 -3.53805377 0.08296126 0 0 Z " fill="#F7F7F7" transform="translate(179.1875,37.5625)"/>
<path d="M0 0 C2.41734542 -0.08117951 4.83194949 -0.14056926 7.25 -0.1875 C7.93191406 -0.21263672 8.61382812 -0.23777344 9.31640625 -0.26367188 C12.48359991 -0.30979605 14.65494877 -0.19065729 17.453125 1.35546875 C19 3 19 3 19.5 5.5 C19 8 19 8 17.453125 9.64453125 C14.08005867 11.50831153 10.99189911 11.3254339 7.25 11.1875 C6.55261719 11.17396484 5.85523438 11.16042969 5.13671875 11.14648438 C3.42414459 11.1112945 1.71197059 11.05749155 0 11 C0 7.37 0 3.74 0 0 Z " fill="#E6E6E6" transform="translate(220,56)"/>
<path d="M0 0 C2.43816585 -0.0809723 4.87364384 -0.14046972 7.3125 -0.1875 C8.34793945 -0.22520508 8.34793945 -0.22520508 9.40429688 -0.26367188 C14.50244333 -0.33755806 14.50244333 -0.33755806 16.9921875 1.3515625 C18 3 18 3 17.8125 5.5625 C17 8 17 8 15 10 C12.41935871 10.14497985 9.95056116 10.18677545 7.375 10.125 C6.66859375 10.11597656 5.9621875 10.10695313 5.234375 10.09765625 C3.48943902 10.07407603 1.74467705 10.03820461 0 10 C0 6.7 0 3.4 0 0 Z " fill="#EAEAEA" transform="translate(220,38)"/>
<path d="M0 0 C0.66 0.66 1.32 1.32 2 2 C1.51917969 2.35707031 1.03835937 2.71414062 0.54296875 3.08203125 C-1.68424838 5.85054672 -1.51394011 8.18159023 -1.6875 11.6875 C-1.75324219 12.86699219 -1.81898438 14.04648438 -1.88671875 15.26171875 C-1.92410156 16.16535156 -1.96148437 17.06898437 -2 18 C-2.33 18 -2.66 18 -3 18 C-3.08119503 15.75059705 -3.13927819 13.50035129 -3.1875 11.25 C-3.22230469 9.99703125 -3.25710937 8.7440625 -3.29296875 7.453125 C-2.98802939 3.85890643 -2.45605371 2.55274874 0 0 Z " fill="#D2D2D2" transform="translate(131,57)"/>
</svg>
