<?xml version="1.0" encoding="UTF-8"?>
<svg version="1.1" xmlns="http://www.w3.org/2000/svg" width="293" height="69">
<path d="M0 0 C96.69 0 193.38 0 293 0 C293 22.77 293 45.54 293 69 C196.31 69 99.62 69 0 69 C0 46.23 0 23.46 0 0 Z " fill="#FAFAFA" transform="translate(0,0)"/>
<path d="M0 0 C0.79795486 -0.00953201 1.59590973 -0.01906403 2.41804504 -0.02888489 C3.27226547 -0.02797348 4.1264859 -0.02706207 5.0065918 -0.02612305 C5.89436813 -0.03040817 6.78214447 -0.0346933 7.69682312 -0.03910828 C9.57375233 -0.04484554 11.45070376 -0.04535628 13.32763672 -0.04101562 C16.18520551 -0.03786452 19.04172972 -0.06129126 21.89916992 -0.08666992 C23.72664258 -0.08894401 25.55411801 -0.0896459 27.3815918 -0.08862305 C28.22973953 -0.09783279 29.07788727 -0.10704254 29.95173645 -0.11653137 C37.50239573 -0.05828167 43.34230653 1.87368132 48.89331055 7.2746582 C53.5943743 12.99216817 53.49404084 18.47655343 53.2722168 25.73950195 C52.51700241 32.78557432 49.10595493 36.48410086 43.86987305 41.01293945 C38.59535747 44.37987331 33.28642797 44.58251904 27.2409668 44.57543945 C26.42260849 44.57972458 25.60425018 44.5840097 24.76109314 44.58842468 C23.03735272 44.59414491 21.31358817 44.59468533 19.58984375 44.59033203 C16.96726923 44.58717201 14.34582403 44.61065948 11.72338867 44.63598633 C10.04174946 44.63825972 8.36010724 44.63896263 6.6784668 44.63793945 C5.90221451 44.6471492 5.12596222 44.65635895 4.32618713 44.66584778 C-1.72648095 44.61496221 -6.55252579 43.49850198 -11.2512207 39.4074707 C-11.80165039 38.74489258 -12.35208008 38.08231445 -12.91918945 37.3996582 C-13.48250977 36.74223633 -14.04583008 36.08481445 -14.6262207 35.4074707 C-19.11195535 28.94517224 -18.94919461 21.88299558 -18.10668945 14.2746582 C-15.88703716 8.28526585 -11.70680446 4.3340567 -6.21101379 1.19026184 C-3.95605375 0.20911574 -2.44475467 0.01612902 0 0 Z " fill="#070707" transform="translate(206.106689453125,17.725341796875)"/>
<path d="M0 0 C0.79795486 -0.00953201 1.59590973 -0.01906403 2.41804504 -0.02888489 C3.27226547 -0.02797348 4.1264859 -0.02706207 5.0065918 -0.02612305 C5.89436813 -0.03040817 6.78214447 -0.0346933 7.69682312 -0.03910828 C9.57375233 -0.04484554 11.45070376 -0.04535628 13.32763672 -0.04101562 C16.18520551 -0.03786452 19.04172972 -0.06129126 21.89916992 -0.08666992 C23.72664258 -0.08894401 25.55411801 -0.0896459 27.3815918 -0.08862305 C28.22973953 -0.09783279 29.07788727 -0.10704254 29.95173645 -0.11653137 C37.44142252 -0.05875205 43.44778908 1.82913674 48.89331055 7.2746582 C53.92967995 13.775854 53.80589467 21.38127595 52.89331055 29.2746582 C51.25044038 34.86430522 46.72153621 39.19260902 41.89331055 42.2746582 C36.82924406 44.36598184 32.37191744 44.5815491 26.98706055 44.57543945 C25.72267151 44.58186714 25.72267151 44.58186714 24.43273926 44.58842468 C22.65772395 44.59414544 20.88268521 44.59468494 19.10766602 44.59033203 C16.40169137 44.587168 13.69680686 44.61067284 10.9909668 44.63598633 C9.26049942 44.63825925 7.53002912 44.63896285 5.79956055 44.63793945 C4.99627319 44.6471492 4.19298584 44.65635895 3.36535645 44.66584778 C-2.486631 44.61794859 -6.66884707 43.45662018 -11.15356445 39.44262695 C-11.7155957 38.78907227 -12.27762695 38.13551758 -12.85668945 37.4621582 C-13.4290332 36.81633789 -14.00137695 36.17051758 -14.59106445 35.50512695 C-18.95187377 29.08754417 -18.85308911 21.74798479 -18.10668945 14.2746582 C-16.24096633 8.24286014 -11.49798765 4.24103173 -6.17585754 1.15510559 C-3.94557695 0.20610356 -2.4119146 0.01591237 0 0 Z " fill="#070707" transform="translate(22.106689453125,17.725341796875)"/>
<path d="M0 0 C1.45170593 -0.01429802 1.45170593 -0.01429802 2.93273926 -0.02888489 C3.97136108 -0.02797348 5.00998291 -0.02706207 6.08007812 -0.02612305 C7.15253784 -0.03040817 8.22499756 -0.0346933 9.32995605 -0.03910828 C11.59610285 -0.04484804 13.86226806 -0.04535445 16.12841797 -0.04101562 C19.5983005 -0.03785367 23.06733212 -0.06132692 26.53710938 -0.08666992 C28.73893121 -0.08894271 30.94075535 -0.08964651 33.14257812 -0.08862305 C34.18119995 -0.09783279 35.21982178 -0.10704254 36.28991699 -0.11653137 C37.25772095 -0.11030258 38.2255249 -0.10407379 39.22265625 -0.09765625 C40.07218872 -0.09828568 40.92172119 -0.0989151 41.79699707 -0.0995636 C44.64689949 0.36125881 46.02995377 1.30065429 48.11132812 3.2746582 C48.54882812 5.7746582 48.54882812 5.7746582 48.11132812 8.2746582 C46.4919933 10.41842517 45.59696684 11.18595693 42.92829895 11.67338562 C42.08224594 11.68448868 41.23619293 11.69559174 40.36450195 11.70703125 C39.40373245 11.72682541 38.44296295 11.74661957 37.45307922 11.76701355 C35.9013929 11.77659843 35.9013929 11.77659843 34.31835938 11.78637695 C33.25719406 11.80432816 32.19602875 11.82227936 31.10270691 11.84077454 C27.70978787 11.89500344 24.31701051 11.9288141 20.92382812 11.9621582 C18.62498023 11.99532011 16.32615106 12.0298087 14.02734375 12.06567383 C8.38879892 12.15073702 2.75023603 12.21903355 -2.88867188 12.2746582 C-2.88867188 13.2646582 -2.88867188 14.2546582 -2.88867188 15.2746582 C-1.23266968 15.29653198 -1.23266968 15.29653198 0.45678711 15.31884766 C4.58893738 15.37722477 8.72056496 15.45445213 12.85229492 15.53710938 C14.63378355 15.57017458 16.41537231 15.59826262 18.19702148 15.62109375 C20.77175198 15.65498127 23.34557992 15.70730964 25.91992188 15.76293945 C26.70467392 15.76932938 27.48942596 15.7757193 28.29795837 15.78230286 C34.96069768 15.9558087 42.30622282 16.93994508 47.17382812 21.8996582 C49.65545413 26.2224906 49.93978828 29.40295231 49.11132812 34.2746582 C47.49302003 37.99676681 45.57747584 40.17396262 42.11132812 42.2746582 C39.07112825 43.22531597 36.29128889 43.41087152 33.11499023 43.43579102 C32.12393784 43.44539856 31.13288544 43.4550061 30.11180115 43.46490479 C28.51635216 43.4712796 28.51635216 43.4712796 26.88867188 43.4777832 C25.79164444 43.48348328 24.694617 43.48918335 23.56434631 43.49505615 C21.24692751 43.50449528 18.92949536 43.51103581 16.61206055 43.51489258 C13.05884686 43.52463075 9.50620376 43.55567803 5.953125 43.5871582 C3.7024774 43.59368521 1.45182566 43.59893687 -0.79882812 43.6027832 C-1.86448502 43.61513 -2.93014191 43.62747681 -4.02809143 43.64019775 C-5.50994179 43.63569611 -5.50994179 43.63569611 -7.02172852 43.63110352 C-7.89124649 43.63474915 -8.76076447 43.63839478 -9.65663147 43.64215088 C-12.37631501 43.19437055 -13.25365644 42.4588125 -14.88867188 40.2746582 C-15.32617188 37.7746582 -15.32617188 37.7746582 -14.88867188 35.2746582 C-12.01923905 32.57129154 -10.01870691 31.89468556 -6.12011719 31.84228516 C-5.17944397 31.822491 -4.23877075 31.80269684 -3.26959229 31.78230286 C-2.2621698 31.77591293 -1.25474731 31.76952301 -0.21679688 31.76293945 C0.82075745 31.74498825 1.85831177 31.72703705 2.92730713 31.70854187 C6.23860622 31.65439443 9.54976079 31.62052835 12.86132812 31.5871582 C15.107442 31.55398911 17.3535368 31.51949984 19.59960938 31.48364258 C25.10338603 31.39866549 30.60718129 31.33033433 36.11132812 31.2746582 C35.61632812 29.7896582 35.61632812 29.7896582 35.11132812 28.2746582 C33.87044434 28.2653125 32.62956055 28.2559668 31.35107422 28.24633789 C26.73254947 28.20636537 22.11468574 28.14058613 17.49658203 28.06713867 C15.50057488 28.03897117 13.50445706 28.01773568 11.50830078 28.00366211 C8.63321448 27.98217417 5.75945284 27.93549394 2.88476562 27.8840332 C1.99703461 27.88280457 1.10930359 27.88157593 0.19467163 27.88031006 C-5.30075727 27.75137152 -8.54710497 26.96410197 -12.88867188 23.2746582 C-15.72789491 19.20510518 -16.59187594 15.35104769 -16.44335938 10.45825195 C-15.41317402 6.40280396 -12.31247606 4.39713844 -8.88867188 2.2746582 C-5.80023552 0.47512202 -3.56444004 0.01933154 0 0 Z " fill="#090909" transform="translate(101.888671875,17.725341796875)"/>
<path d="M0 0 C0.80610718 -0.00478363 1.61221436 -0.00956726 2.44274902 -0.01449585 C4.14398148 -0.01789239 5.84527942 -0.0087069 7.54638672 0.01220703 C10.14829223 0.03898061 12.74588467 0.01245573 15.34765625 -0.01953125 C17.00261367 -0.0162271 18.65756842 -0.00982075 20.3125 0 C21.08863647 -0.01012115 21.86477295 -0.02024231 22.66442871 -0.03067017 C26.51952285 0.05284158 28.28601133 0.31814343 31.14648438 2.99072266 C33.15169375 6.54134404 33.22140068 8.63736388 32.65625 12.6640625 C31.14648438 15.83911133 31.14648438 15.83911133 28.65625 18.6640625 C25.60832135 19.27612398 23.35787179 19.48574585 20.3125 19.42578125 C19.50639282 19.42914993 18.70028564 19.43251862 17.86975098 19.43598938 C16.16847339 19.43569089 14.46714171 19.4204747 12.76611328 19.39135742 C10.16401847 19.35168095 7.56702214 19.3706447 4.96484375 19.39648438 C3.30987609 19.38892484 1.65491973 19.37797093 0 19.36328125 C-0.77613647 19.37026535 -1.55227295 19.37724945 -2.35192871 19.38444519 C-6.26589491 19.28229438 -7.97612642 19.02082906 -10.83203125 16.24926758 C-12.28722987 13.76071813 -12.88946987 12.4986945 -12.84375 9.6640625 C-12.8540625 9.0246875 -12.864375 8.3853125 -12.875 7.7265625 C-11.06601785 0.70345532 -6.46768477 -0.0843414 0 0 Z " fill="#F6F6F6" transform="translate(213.34375,30.3359375)"/>
<path d="M0 0 C0.80610718 -0.00478363 1.61221436 -0.00956726 2.44274902 -0.01449585 C4.14398148 -0.01789239 5.84527942 -0.0087069 7.54638672 0.01220703 C10.14829223 0.03898061 12.74588467 0.01245573 15.34765625 -0.01953125 C17.00261367 -0.0162271 18.65756842 -0.00982075 20.3125 0 C21.08863647 -0.01012115 21.86477295 -0.02024231 22.66442871 -0.03067017 C26.51760134 0.05279995 28.28733704 0.32049967 31.15039062 2.98681641 C33.12592237 6.49908636 33.15341288 8.68675947 32.65625 12.6640625 C30.45625 17.2640625 30.45625 17.2640625 27.65625 18.6640625 C22.55493552 18.94774816 17.45269574 18.9777485 12.34423828 19.01416016 C10.63902141 19.03072828 8.93387422 19.05802997 7.22900391 19.09619141 C4.76949074 19.15095307 2.3116031 19.17282979 -0.1484375 19.1875 C-0.9089743 19.21016937 -1.66951111 19.23283875 -2.45309448 19.25619507 C-6.35235646 19.24063036 -7.97489625 19.02172785 -10.82275391 16.26025391 C-12.28456869 13.7650792 -12.88959433 12.50641079 -12.84375 9.6640625 C-12.8540625 9.0246875 -12.864375 8.3853125 -12.875 7.7265625 C-11.06601785 0.70345532 -6.46768477 -0.0843414 0 0 Z " fill="#F6F6F6" transform="translate(29.34375,30.3359375)"/>
<path d="M0 0 C2.15905762 1.20777893 2.15905762 1.20777893 4 3 C4.50793457 5.30796814 4.50793457 5.30796814 4.51757812 8.05053711 C4.53018677 9.07847885 4.54279541 10.10642059 4.55578613 11.16551208 C4.54364075 12.82961876 4.54364075 12.82961876 4.53125 14.52734375 C4.5350769 15.66780655 4.53890381 16.80826935 4.54284668 17.98329163 C4.54557031 20.39666628 4.53817777 22.81007022 4.52148438 25.22338867 C4.50010251 28.91977785 4.52126249 32.61421878 4.546875 36.31054688 C4.54423142 38.65365013 4.53910582 40.99675217 4.53125 43.33984375 C4.53934692 44.44722397 4.54744385 45.55460419 4.55578613 46.69554138 C4.54317749 47.72663528 4.53056885 48.75772919 4.51757812 49.82006836 C4.51439575 50.72591171 4.51121338 51.63175507 4.50793457 52.56504822 C3.83687458 55.78199547 2.54959127 56.98825255 0 59 C-3.13833064 59.44833295 -5.03973864 59.69731226 -7.65933228 57.79504395 C-9.46126857 55.38239928 -9.38045912 53.83811037 -9.38818359 50.84179688 C-9.39764008 49.79060669 -9.40709656 48.7394165 -9.4168396 47.65637207 C-9.41076691 46.52195679 -9.40469421 45.3875415 -9.3984375 44.21875 C-9.40130768 43.05371948 -9.40417786 41.88868896 -9.40713501 40.68835449 C-9.40917767 38.22370925 -9.40363379 35.75904788 -9.39111328 33.29443359 C-9.37506341 29.51493185 -9.39095614 25.7364996 -9.41015625 21.95703125 C-9.40817386 19.5651018 -9.40433026 17.17317301 -9.3984375 14.78125 C-9.40451019 13.64683472 -9.41058289 12.51241943 -9.4168396 11.34362793 C-9.40738312 10.29243774 -9.39792664 9.24124756 -9.38818359 8.15820312 C-9.38579681 7.23237427 -9.38341003 6.30654541 -9.38095093 5.35266113 C-8.49557812 -0.11518798 -4.9778545 -0.6095332 0 0 Z " fill="#050505" transform="translate(172,4)"/>
<path d="M0 0 C3.5625 0.5 3.5625 0.5 6.0625 2.0625 C7.5625 4.5 7.5625 4.5 7.5625 8.0625 C6.5625 11.5 6.5625 11.5 4.9375 13.5 C1.48586696 14.95331917 -0.86559484 14.42604949 -4.4375 13.5 C-6.76329101 10.01131349 -6.85615457 8.60281481 -6.4375 4.5 C-4.82303773 0.89120198 -3.95737975 0.57561887 0 0 Z " fill="#0D0D0D" transform="translate(280.4375,48.5)"/>
</svg>
