<?xml version="1.0" encoding="UTF-8"?>
<svg version="1.1" xmlns="http://www.w3.org/2000/svg" width="291" height="78">
<path d="M0 0 C96.03 0 192.06 0 291 0 C291 25.74 291 51.48 291 78 C194.97 78 98.94 78 0 78 C0 52.26 0 26.52 0 0 Z " fill="#FCFCFC" transform="translate(0,0)"/>
<path d="M0 0 C2.5 0.25 2.5 0.25 4.5 2.25 C4.42199786 5.80209754 3.6245658 7.1141872 1.20703125 9.75 C0.25183594 10.575 -0.70335938 11.4 -1.6875 12.25 C-2.6775 13.11367187 -3.6675 13.97734375 -4.6875 14.8671875 C-5.615625 15.65351563 -6.54375 16.43984375 -7.5 17.25 C-8.180625 17.83007812 -8.86125 18.41015625 -9.5625 19.0078125 C-10.86347762 20.10238502 -12.1793709 21.17921965 -13.5 22.25 C-12.365625 22.889375 -11.23125 23.52875 -10.0625 24.1875 C-6.625 26.125 -6.625 26.125 -5.5 27.25 C-5.45936168 28.91617115 -5.457279 30.58388095 -5.5 32.25 C-6.16 32.25 -6.82 32.25 -7.5 32.25 C-7.5 32.91 -7.5 33.57 -7.5 34.25 C-10.15837761 33.79427812 -12.45712169 33.26869055 -14.9375 32.1875 C-18.05821074 31.04577656 -20.18841328 30.93361296 -23.5 31.25 C-25.9465929 32.81148659 -25.9465929 32.81148659 -28.06640625 35.08984375 C-28.88173828 35.90646484 -29.69707031 36.72308594 -30.53710938 37.56445312 C-31.37048828 38.43005859 -32.20386719 39.29566406 -33.0625 40.1875 C-34.31836914 41.43370117 -34.31836914 41.43370117 -35.59960938 42.70507812 C-40.6066266 47.7993118 -44.44745137 52.78008358 -47.5 59.25 C-38.93778789 56.70309386 -30.77942264 53.66015262 -22.6875 49.875 C-21.9246167 49.52445557 -21.1617334 49.17391113 -20.37573242 48.81274414 C-10.2423924 43.96456372 -2.29265429 37.45083583 5.4375 29.375 C11.83583752 22.83496277 18.23874463 16.82645429 25.5 11.25 C26.30953125 10.56164063 27.1190625 9.87328125 27.953125 9.1640625 C33.67890572 4.36729918 33.67890572 4.36729918 38 3.75 C40.5 4.25 40.5 4.25 41.5 5.25 C41.8359375 7.609375 41.8359375 7.609375 41.5 10.25 C39.6640625 11.953125 39.6640625 11.953125 37.125 13.5 C31.37347668 17.24818373 26.51612425 21.5821148 21.5 26.25 C20.48427496 27.17579969 19.46730141 28.10023107 18.44921875 29.0234375 C9.11500013 37.49733268 0.00086301 46.06057465 -7.5 56.25 C-5.85451172 55.72599609 -5.85451172 55.72599609 -4.17578125 55.19140625 C-2.72139762 54.73163336 -1.26696811 54.27200559 0.1875 53.8125 C0.90873047 53.58240234 1.62996094 53.35230469 2.37304688 53.11523438 C17.18004095 48.45001706 17.18004095 48.45001706 24.5 51.5 C25.49 52.36625 25.49 52.36625 26.5 53.25 C26.5 54.57 26.5 55.89 26.5 57.25 C27.2206665 57.01289307 27.94133301 56.77578613 28.68383789 56.53149414 C31.97479046 55.45248896 35.26858563 54.38242777 38.5625 53.3125 C40.2630957 52.75272461 40.2630957 52.75272461 41.99804688 52.18164062 C51.46352001 49.11847002 51.46352001 49.11847002 55.49609375 48.62109375 C58.4903865 48.38363803 58.4903865 48.38363803 61.0625 47.20703125 C63.99378938 46.05612436 66.35791857 45.94952327 69.5 45.9375 C70.510625 45.92074219 71.52125 45.90398438 72.5625 45.88671875 C75.88205734 46.29724911 77.77885971 47.35420557 80.5 49.25 C79.75 55 79.75 55 77.5 57.25 C87.85085192 57.07980662 97.05881125 55.33426434 106.9921875 52.50390625 C114.30749653 50.44026905 120.93281341 48.98752817 128.5625 49.125 C129.87347656 49.14304688 131.18445313 49.16109375 132.53515625 49.1796875 C134.00275391 49.21449219 134.00275391 49.21449219 135.5 49.25 C136.16 47.93 136.82 46.61 137.5 45.25 C143.25 46.125 143.25 46.125 145.5 47.25 C147.70335752 47.38109516 149.91035728 47.45284256 152.1171875 47.49609375 C153.45964184 47.52903608 154.8020896 47.56224766 156.14453125 47.59570312 C158.25988174 47.64307637 160.37520625 47.68750383 162.49072266 47.72680664 C164.53316139 47.76662537 166.57505274 47.81814766 168.6171875 47.87109375 C170.45192627 47.90867798 170.45192627 47.90867798 172.32373047 47.94702148 C175.28963302 48.22993348 177.00108741 48.69585514 179.5 50.25 C179.625 52.625 179.625 52.625 179.5 55.25 C177.5 57.25 177.5 57.25 175.26025391 57.49291992 C173.88232666 57.48675659 173.88232666 57.48675659 172.4765625 57.48046875 C171.46013672 57.47917969 170.44371094 57.47789063 169.39648438 57.4765625 C167.77709961 57.45722656 167.77709961 57.45722656 166.125 57.4375 C164.49401367 57.42783203 164.49401367 57.42783203 162.83007812 57.41796875 C155.68074344 57.34943109 148.60225403 57.12220664 141.5 56.25 C141.08041016 57.40242188 141.08041016 57.40242188 140.65234375 58.578125 C139.19596188 61.95495619 137.24754546 63.83752106 134.5 66.25 C130.91996227 67.44334591 128.25684104 67.58543224 124.5 67.25 C122.5625 65.5 122.5625 65.5 121.5 63.25 C121.5 61.93 121.5 60.61 121.5 59.25 C107.99670494 61.84484939 107.99670494 61.84484939 94.80078125 65.63671875 C88.02948962 67.4416301 80.90537827 67.5432684 73.9375 67.6875 C73.03064453 67.73326172 72.12378906 67.77902344 71.18945312 67.82617188 C66.25980042 67.90839233 63.26212058 67.57874798 59.41015625 64.34765625 C57.68075217 62.6633381 56.58128775 61.4125755 55.5 59.25 C48.31704376 60.50416696 41.44398975 62.36404977 34.47875977 64.48510742 C28.39216753 66.3306109 22.93543335 67.61426981 16.5 67.25 C14.5 65.25 14.5 65.25 14.375 62.625 C14.41625 61.84125 14.4575 61.0575 14.5 60.25 C8.70899987 60.8167233 3.58358894 62.02262393 -1.9375 63.8125 C-7.94640201 65.66360524 -13.16170418 67.13958538 -19.5 66.25 C-21.6519437 63.02208445 -21.70086443 61.96599191 -21.5 58.25 C-22.25506836 58.58994995 -22.25506836 58.58994995 -23.02539062 58.93676758 C-25.34912578 59.9812237 -27.67454571 61.02187743 -30 62.0625 C-30.79148437 62.41892578 -31.58296875 62.77535156 -32.3984375 63.14257812 C-47.80052054 70.02301686 -47.80052054 70.02301686 -54.5 69.25 C-56.9375 67.75 -56.9375 67.75 -58.5 66.25 C-57.88825331 52.17982605 -44.96464679 40.53260194 -35.5 31.25 C-58.47095461 30.74608098 -80.71310197 32.30514367 -103.5 35.25 C-103.83 33.93 -104.16 32.61 -104.5 31.25 C-95.64743892 28.15888462 -87.07035161 26.33040899 -77.75842285 25.29885864 C-75.56206034 25.05552701 -73.3687508 24.79125416 -71.17480469 24.52709961 C-63.72107395 23.66946974 -56.38814388 23.13046397 -48.8828125 23.234375 C-33.35820001 24.13144275 -33.35820001 24.13144275 -19.79101562 17.89160156 C-17.60254111 15.65490643 -15.62693311 13.33123439 -13.74462891 10.83251953 C-11.99242428 8.60462813 -9.93050425 6.8611296 -7.75 5.0625 C-2.09885387 0.20988539 -2.09885387 0.20988539 0 0 Z " fill="#0C0C0C" transform="translate(107.5,2.75)"/>
</svg>
